<svg xmlns="http://www.w3.org/2000/svg" width="96" height="96" viewBox="0 0 96 96" version="1.1"><path d="M 48 32.500 C 48 32.775, 48.225 33, 48.500 33 C 48.775 33, 49 32.775, 49 32.500 C 49 32.225, 48.775 32, 48.500 32 C 48.225 32, 48 32.225, 48 32.500 M 49 36.500 C 49 36.775, 49.225 37, 49.500 37 C 49.775 37, 50 36.775, 50 36.500 C 50 36.225, 49.775 36, 49.500 36 C 49.225 36, 49 36.225, 49 36.500 M 50 40.500 C 50 40.775, 50.225 41, 50.500 41 C 50.775 41, 51 40.775, 51 40.500 C 51 40.225, 50.775 40, 50.500 40 C 50.225 40, 50 40.225, 50 40.500 M 51.400 43.750 C 53.043 49.125, 55 57.701, 55 59.525 C 55 60.957, 53.849 62.178, 51.400 63.347 C 48.351 64.800, 47.892 65.435, 48.408 67.488 C 49.609 72.275, 50.995 75.061, 52.454 75.621 C 54.319 76.336, 76.871 65.885, 76.426 64.511 C 76.246 63.955, 75.615 61.609, 75.024 59.298 C 74.012 55.342, 73.315 54.715, 63.080 48.548 C 57.103 44.947, 51.909 42, 51.539 42 C 51.168 42, 51.106 42.788, 51.400 43.750" stroke="none" fill="#f9bc00" fill-rule="evenodd"/><path d="M 30.179 25.476 C 23.952 28.493, 19.069 31.307, 19.328 31.730 C 19.586 32.154, 20.308 34.405, 20.933 36.733 C 22.005 40.730, 22.688 41.334, 33.143 47.541 C 39.235 51.157, 44.387 53.946, 44.593 53.741 C 44.799 53.535, 43.905 49.507, 42.608 44.791 C 41.310 40.075, 40.530 35.780, 40.874 35.247 C 41.218 34.715, 43.003 33.509, 44.840 32.567 C 47.733 31.085, 48.092 30.497, 47.516 28.178 C 46.423 23.770, 44.578 20.541, 42.992 20.258 C 42.172 20.111, 36.405 22.460, 30.179 25.476" stroke="none" fill="#0a4da5" fill-rule="evenodd"/><path d="M 11 0.585 C 11 2.082, 18.351 28.591, 18.955 29.269 C 19.331 29.692, 24.464 27.780, 30.361 25.019 C 36.258 22.259, 42.019 20, 43.164 20 C 46.767 20, 43.749 17.661, 28.419 8.570 C 15.406 0.854, 11 -1.166, 11 0.585 M 13.250 32.745 C 10.829 33.950, 10.007 35.018, 10.028 36.931 C 10.077 41.422, 19.633 75.366, 21.110 76.298 C 22.083 76.912, 26.443 75.376, 35.014 71.399 C 41.881 68.213, 47.620 65.538, 47.767 65.453 C 47.914 65.369, 47.512 63.037, 46.874 60.273 C 45.727 55.306, 45.604 55.183, 36.607 49.988 C 22.979 42.119, 21.429 40.763, 20.117 35.549 C 18.871 30.604, 18.147 30.308, 13.250 32.745" stroke="none" fill="#2e7fca" fill-rule="evenodd"/><path d="M 44.250 32.989 C 41.906 34.418, 41 35.706, 41 37.608 C 41 39.861, 41.223 40.060, 42.530 38.975 C 43.728 37.980, 44.621 37.962, 46.659 38.890 C 48.089 39.542, 49.455 39.878, 49.695 39.638 C 50.094 39.240, 48.200 30.995, 47.711 31.004 C 47.595 31.006, 46.038 31.899, 44.250 32.989 M 50 41.500 C 50 41.775, 50.225 42, 50.500 42 C 50.775 42, 51 41.775, 51 41.500 C 51 41.225, 50.775 41, 50.500 41 C 50.225 41, 50 41.225, 50 41.500 M 51 45 C 51 45.733, 51.300 46.033, 51.667 45.667 C 52.033 45.300, 52.033 44.700, 51.667 44.333 C 51.300 43.967, 51 44.267, 51 45 M 52 48.500 C 52 48.775, 52.225 49, 52.500 49 C 52.775 49, 53 48.775, 53 48.500 C 53 48.225, 52.775 48, 52.500 48 C 52.225 48, 52 48.225, 52 48.500 M 53 52 C 53 52.733, 53.300 53.033, 53.667 52.667 C 54.033 52.300, 54.033 51.700, 53.667 51.333 C 53.300 50.967, 53 51.267, 53 52 M 46.006 56.227 C 46.009 56.927, 46.476 59.172, 47.043 61.216 C 48.075 64.932, 48.075 64.932, 51.538 63.281 C 54.291 61.968, 55 61.046, 55 58.780 C 55 56.209, 54.798 56.038, 52.933 57.036 C 51.325 57.896, 50.325 57.788, 48.433 56.548 C 46.632 55.368, 46.001 55.285, 46.006 56.227" stroke="none" fill="#45681b" fill-rule="evenodd"/><path d="M 41 34.500 C 41 34.775, 41.225 35, 41.500 35 C 41.775 35, 42 34.775, 42 34.500 C 42 34.225, 41.775 34, 41.500 34 C 41.225 34, 41 34.225, 41 34.500 M 40 36.500 C 40 36.775, 40.225 37, 40.500 37 C 40.775 37, 41 36.775, 41 36.500 C 41 36.225, 40.775 36, 40.500 36 C 40.225 36, 40 36.225, 40 36.500 M 42.367 39.033 C 41.655 39.745, 41.942 42.350, 43.287 47.389 C 44.854 53.261, 45.793 55.037, 48.030 56.359 C 51.911 58.651, 54.358 57.540, 53.615 53.824 C 51.841 44.956, 49.859 40.257, 47.425 39.148 C 44.328 37.737, 43.678 37.722, 42.367 39.033" stroke="none" fill="#2b5a20" fill-rule="evenodd"/><path d="M 60.315 24.969 C 48.130 30.805, 48.130 30.805, 49.502 36.006 C 50.256 38.866, 51.015 41.313, 51.187 41.442 C 51.359 41.572, 56.547 44.694, 62.715 48.381 C 72.783 54.400, 74.035 55.464, 74.959 58.793 C 75.525 60.832, 75.991 63.063, 75.994 63.750 C 76.002 65.468, 78.270 65.316, 82.466 63.315 C 85.035 62.090, 86 60.986, 86 59.272 C 86 56.213, 76.941 21.886, 75.702 20.250 C 74.298 18.397, 73.572 18.620, 60.315 24.969 M 64.628 71.167 C 54.999 75.738, 53.515 76.178, 51.660 75.019 C 49.624 73.749, 49.609 73.780, 51.140 76.105 C 52.818 78.656, 81.185 96, 83.679 96 C 85.400 96, 85.372 95.839, 80.716 78.583 C 78.947 72.029, 77.050 66.518, 76.500 66.336 C 75.950 66.154, 70.607 68.328, 64.628 71.167" stroke="none" fill="#fbcd04" fill-rule="evenodd"/></svg>