<?xml version="1.0" standalone="no"?>
<!DOCTYPE svg PUBLIC "-//W3C//DTD SVG 20010904//EN"
 "http://www.w3.org/TR/2001/REC-SVG-20010904/DTD/svg10.dtd">
<svg version="1.0" xmlns="http://www.w3.org/2000/svg"
 width="247.000000pt" height="70.000000pt" viewBox="0 0 247.000000 70.000000"
 preserveAspectRatio="xMidYMid meet">

<g transform="translate(0.000000,70.000000) scale(0.100000,-0.100000)"
fill="#000000" stroke="none">
<path d="M92 577 c-21 -22 -22 -31 -22 -248 0 -187 3 -228 16 -247 15 -22 19
-22 250 -22 143 0 243 4 255 10 11 6 19 21 19 35 l0 25 -158 0 c-172 0 -182 3
-182 55 0 51 11 55 163 55 76 0 147 5 158 10 17 10 19 23 19 164 0 135 -2 155
-18 169 -16 15 -49 17 -249 17 -227 0 -230 0 -251 -23z m436 -169 c7 -7 12
-26 12 -43 0 -50 -13 -55 -135 -55 -122 0 -135 5 -135 55 0 17 5 36 12 43 17
17 229 17 246 0z"/>
<path d="M692 577 c-21 -22 -22 -31 -22 -249 0 -213 1 -227 21 -252 l20 -26
228 0 c216 0 230 1 255 21 14 11 26 29 26 40 0 18 -9 19 -153 19 -122 0 -157
3 -175 16 -24 17 -29 56 -9 73 8 6 76 12 173 13 l159 3 3 160 c4 222 26 205
-272 205 -230 0 -233 0 -254 -23z"/>
<path d="M1290 573 c-20 -26 -21 -35 -18 -256 3 -227 3 -229 27 -248 21 -17
42 -19 243 -19 247 0 277 7 278 63 0 15 -14 17 -153 17 -175 0 -191 5 -185 60
l3 35 165 5 165 5 3 165 c3 158 2 166 -19 183 -19 15 -47 17 -254 17 l-234 0
-21 -27z"/>
<path d="M1897 582 c-15 -16 -17 -49 -17 -260 0 -238 0 -241 22 -256 19 -13
60 -16 246 -16 243 0 272 6 272 56 l0 24 -151 0 c-84 0 -159 5 -170 10 -20 11
-26 54 -11 77 6 9 55 13 167 15 l160 3 3 164 c2 142 0 166 -14 182 -16 18 -36
19 -254 19 -217 0 -238 -2 -253 -18z"/>
</g>
</svg>
