<svg xmlns="http://www.w3.org/2000/svg" width="160" height="40" viewBox="0 0 160 40" version="1.1"><path d="M 2.200 2.200 C 0.518 3.882, 0.518 35.118, 2.200 36.800 C 3.034 37.634, 8.311 38, 19.500 38 C 36.138 38, 38 37.577, 38 33.800 C 38 32.176, 36.928 32, 27.059 32 C 20.779 32, 15.852 31.570, 15.494 30.991 C 15.152 30.436, 15.155 29.086, 15.503 27.991 C 16.077 26.183, 17.028 26, 25.867 26 C 32.104 26, 36.031 25.569, 36.800 24.800 C 38.440 23.160, 38.440 3.840, 36.800 2.200 C 35.118 0.518, 3.882 0.518, 2.200 2.200 M 15.520 14.968 C 15.163 15.546, 15.161 16.932, 15.516 18.050 C 16.101 19.895, 16.864 20.055, 23.830 19.791 C 31.267 19.509, 31.500 19.424, 31.500 17 C 31.500 14.576, 31.267 14.491, 23.834 14.209 C 19.245 14.036, 15.908 14.340, 15.520 14.968" stroke="none" fill="#dc6108" fill-rule="evenodd"/><path d="M 2.200 2.200 C 0.518 3.882, 0.518 35.118, 2.200 36.800 C 3.034 37.634, 8.311 38, 19.500 38 C 36.138 38, 38 37.577, 38 33.800 C 38 32.176, 36.928 32, 27.059 32 C 20.779 32, 15.852 31.570, 15.494 30.991 C 15.152 30.436, 15.155 29.086, 15.503 27.991 C 16.077 26.183, 17.028 26, 25.867 26 C 32.104 26, 36.031 25.569, 36.800 24.800 C 38.440 23.160, 38.440 3.840, 36.800 2.200 C 35.118 0.518, 3.882 0.518, 2.200 2.200 M 15.520 14.968 C 15.163 15.546, 15.161 16.932, 15.516 18.050 C 16.101 19.895, 16.864 20.055, 23.830 19.791 C 31.267 19.509, 31.500 19.424, 31.500 17 C 31.500 14.576, 31.267 14.491, 23.834 14.209 C 19.245 14.036, 15.908 14.340, 15.520 14.968" stroke="none" fill="#dc6108" fill-rule="evenodd"/><path d="M 2.200 2.200 C 0.518 3.882, 0.518 35.118, 2.200 36.800 C 3.034 37.634, 8.311 38, 19.500 38 C 36.138 38, 38 37.577, 38 33.800 C 38 32.176, 36.928 32, 27.059 32 C 20.779 32, 15.852 31.570, 15.494 30.991 C 15.152 30.436, 15.155 29.086, 15.503 27.991 C 16.077 26.183, 17.028 26, 25.867 26 C 32.104 26, 36.031 25.569, 36.800 24.800 C 38.440 23.160, 38.440 3.840, 36.800 2.200 C 35.118 0.518, 3.882 0.518, 2.200 2.200 M 15.520 14.968 C 15.163 15.546, 15.161 16.932, 15.516 18.050 C 16.101 19.895, 16.864 20.055, 23.830 19.791 C 31.267 19.509, 31.500 19.424, 31.500 17 C 31.500 14.576, 31.267 14.491, 23.834 14.209 C 19.245 14.036, 15.908 14.340, 15.520 14.968" stroke="none" fill="#dc6108" fill-rule="evenodd"/><path d="M 43 3 C 41.187 4.813, 41 6.333, 41 19.277 C 41 39.002, 40.030 38, 59.122 38 C 74.745 38, 78 37.304, 78 33.965 C 78 32.125, 77.264 32, 66.434 32 C 54.867 32, 54.867 32, 55.184 29.250 C 55.500 26.500, 55.500 26.500, 66.750 26.217 C 78 25.934, 78 25.934, 78 15.039 C 78 6.467, 77.665 3.808, 76.429 2.571 C 75.140 1.283, 72.167 1, 59.929 1 C 46.333 1, 44.821 1.179, 43 3 M 83.441 2.419 C 81.665 3.718, 81.500 5.149, 81.500 19.266 C 81.500 30.871, 81.840 35.102, 82.872 36.346 C 84.037 37.750, 86.508 38, 99.188 38 C 114.707 38, 118 37.299, 118 33.998 C 118 32.219, 117.104 32.043, 106.750 31.783 C 95.500 31.500, 95.500 31.500, 95.500 29 C 95.500 26.500, 95.500 26.500, 106.750 26.217 C 118 25.934, 118 25.934, 118 14.502 C 118 4.223, 117.805 2.966, 116.066 2.035 C 112.968 0.377, 85.797 0.697, 83.441 2.419 M 123.750 2.080 C 122.197 2.985, 122 4.928, 122 19.350 C 122 30.655, 122.365 35.965, 123.200 36.800 C 124.031 37.631, 129.200 38, 140 38 C 156.089 38, 158 37.558, 158 33.833 C 158 32.265, 156.733 32.034, 146.750 31.783 C 135.500 31.500, 135.500 31.500, 135.500 29 C 135.500 26.500, 135.500 26.500, 146.750 26.217 C 158 25.934, 158 25.934, 158 14.502 C 158 4.223, 157.805 2.966, 156.066 2.035 C 153.566 0.697, 126.058 0.736, 123.750 2.080" stroke="none" fill="#60686b" fill-rule="evenodd"/><path d="M 0 20.006 L 0 40.012 80.250 39.756 L 160.500 39.500 160.771 19.750 L 161.042 0 80.521 0 L 0 0 0 20.006 M 0.115 20.500 C 0.161 31.500, 0.511 39.380, 0.892 38.010 C 1.364 36.315, 1.830 35.916, 2.352 36.760 C 2.911 37.664, 7.515 38, 19.359 38 C 36.144 38, 38 37.582, 38 33.800 C 38 32.176, 36.928 32, 27.059 32 C 20.779 32, 15.852 31.570, 15.494 30.991 C 15.152 30.436, 15.155 29.086, 15.503 27.991 C 16.077 26.183, 17.028 26, 25.867 26 C 32.104 26, 36.031 25.569, 36.800 24.800 C 38.440 23.160, 38.440 3.840, 36.800 2.200 C 35.189 0.589, 3.425 0.503, 2.434 2.107 C 1.957 2.878, 1.490 2.803, 0.890 1.857 C 0.396 1.076, 0.066 8.993, 0.115 20.500 M 42.200 2.200 C 40.518 3.882, 40.518 35.118, 42.200 36.800 C 43.034 37.634, 48.311 38, 59.500 38 C 76.138 38, 78 37.577, 78 33.800 C 78 32.177, 76.930 32, 67.107 32 C 55.797 32, 54.158 31.357, 55.638 27.500 C 56.101 26.294, 58.347 26, 67.107 26 C 78 26, 78 26, 78 14.700 C 78 7.244, 77.592 2.992, 76.800 2.200 C 75.118 0.518, 43.882 0.518, 42.200 2.200 M 82.571 2.571 C 81.283 3.860, 81 6.839, 81 19.137 C 81 27.561, 81.454 34.979, 82.035 36.066 C 82.992 37.853, 84.274 38, 98.953 38 C 107.689 38, 115.548 37.727, 116.418 37.393 C 117.288 37.059, 118 35.709, 118 34.393 C 118 32.014, 117.936 32, 107 32 C 96 32, 96 32, 96 29 C 96 26, 96 26, 107 26 C 118 26, 118 26, 118 14.700 C 118 7.244, 117.592 2.992, 116.800 2.200 C 115.968 1.368, 110.771 1, 99.871 1 C 86.906 1, 83.867 1.276, 82.571 2.571 M 122.571 2.571 C 121.283 3.860, 121 6.839, 121 19.137 C 121 27.561, 121.454 34.979, 122.035 36.066 C 122.996 37.861, 124.286 38, 140 38 C 155.714 38, 157.004 37.861, 157.965 36.066 C 160.004 32.256, 159.341 32, 147.434 32 C 135.867 32, 135.867 32, 136.184 29.250 C 136.500 26.500, 136.500 26.500, 147.835 26.216 C 159.170 25.933, 159.170 25.933, 158.835 14.428 C 158.577 5.557, 158.157 2.707, 157 1.977 C 156.175 1.457, 148.445 1.024, 139.821 1.015 C 126.887 1.003, 123.868 1.275, 122.571 2.571 M 15.520 14.968 C 15.163 15.546, 15.161 16.932, 15.516 18.050 C 16.101 19.895, 16.864 20.055, 23.830 19.791 C 31.267 19.509, 31.500 19.424, 31.500 17 C 31.500 14.576, 31.267 14.491, 23.834 14.209 C 19.245 14.036, 15.908 14.340, 15.520 14.968" stroke="none" fill="#f9f8f7" fill-rule="evenodd"/><path d="M 41.980 2.524 C 40.142 4.739, 41.188 4.994, 43.250 2.833 C 44.212 1.825, 44.605 1, 44.122 1 C 43.640 1, 42.676 1.686, 41.980 2.524 M 81 5 C 81 5.733, 81.300 6.033, 81.667 5.667 C 82.033 5.300, 82.033 4.700, 81.667 4.333 C 81.300 3.967, 81 4.267, 81 5 M 121.405 19.500 C 121.406 28.300, 121.559 31.766, 121.745 27.203 C 121.930 22.639, 121.929 15.439, 121.742 11.203 C 121.555 6.966, 121.404 10.700, 121.405 19.500 M 158.374 15.500 C 158.376 21.550, 158.541 23.896, 158.740 20.713 C 158.939 17.531, 158.937 12.581, 158.736 9.713 C 158.535 6.846, 158.372 9.450, 158.374 15.500 M 135.374 27.467 C 135.065 28.274, 135.004 29.511, 135.240 30.217 C 135.476 30.923, 135.906 30.262, 136.196 28.750 C 136.762 25.797, 136.295 25.068, 135.374 27.467 M 95.158 29 C 95.158 30.375, 95.385 30.938, 95.662 30.250 C 95.940 29.563, 95.940 28.438, 95.662 27.750 C 95.385 27.063, 95.158 27.625, 95.158 29 M 55 31 C 55 31.733, 55.300 32.033, 55.667 31.667 C 56.033 31.300, 56.033 30.700, 55.667 30.333 C 55.300 29.967, 55 30.267, 55 31 M 158.079 33.583 C 158.127 34.748, 158.364 34.985, 158.683 34.188 C 158.972 33.466, 158.936 32.603, 158.604 32.271 C 158.272 31.939, 158.036 32.529, 158.079 33.583 M 81 34 C 81 34.733, 81.300 35.033, 81.667 34.667 C 82.033 34.300, 82.033 33.700, 81.667 33.333 C 81.300 32.967, 81 33.267, 81 34 M 41 34.711 C 41 35.285, 41.788 36.373, 42.750 37.128 C 44.369 38.397, 44.390 38.350, 43.033 36.500 C 42.226 35.400, 41.439 34.313, 41.283 34.083 C 41.127 33.854, 41 34.137, 41 34.711 M 82.500 37 C 82.840 37.550, 83.343 38, 83.618 38 C 83.893 38, 83.840 37.550, 83.500 37 C 83.160 36.450, 82.657 36, 82.382 36 C 82.107 36, 82.160 36.450, 82.500 37 M 122.500 37 C 122.840 37.550, 123.343 38, 123.618 38 C 123.893 38, 123.840 37.550, 123.500 37 C 123.160 36.450, 122.657 36, 122.382 36 C 122.107 36, 122.160 36.450, 122.500 37 M 156.405 37.155 C 155.962 37.870, 156.130 38.038, 156.845 37.595 C 157.998 36.883, 158.393 36, 157.559 36 C 157.316 36, 156.797 36.520, 156.405 37.155" stroke="none" fill="#646c6c" fill-rule="evenodd"/></svg>