<svg xmlns="http://www.w3.org/2000/svg" width="512" height="512" viewBox="0 0 512 512" version="1.1"><path d="M 151.127 94.453 C 136.128 99.283, 132.372 118.218, 144.330 128.716 C 153.538 136.802, 166.715 134.943, 173.750 124.567 C 184.217 109.129, 168.894 88.732, 151.127 94.453 M 142 265 C 142 372, 142 372, 157.500 372 C 173 372, 173 372, 173 265 C 173 158, 173 158, 157.500 158 C 142 158, 142 158, 142 265 M 218 265.508 C 218 373.175, 218 373.175, 267.750 372.731 C 314.487 372.313, 318.105 372.152, 327.484 370.075 C 362.715 362.271, 388.574 342.707, 403.584 312.500 C 429.438 260.472, 408.935 196, 358.500 170.732 C 350.924 166.936, 336.679 162.147, 327.609 160.347 C 321.017 159.039, 310.008 158.654, 268.750 158.289 C 218 157.841, 218 157.841, 218 265.508 M 249 265.399 C 249 345, 249 345, 275.250 344.992 C 312.826 344.980, 325.676 343.119, 341.519 335.394 C 361.126 325.833, 375.682 306.737, 381.041 283.543 C 382.939 275.331, 383.185 272.076, 382.725 261.215 C 382.084 246.039, 380.507 239.594, 374.374 227.096 C 366.487 211.022, 352.514 198.931, 334.098 192.247 C 320.423 187.283, 316.334 186.818, 281.750 186.294 C 249 185.797, 249 185.797, 249 265.399" stroke="none" fill="#fafbf8" fill-rule="evenodd"/><path d="M 223.564 1.625 C 189.116 6.037, 148.947 20.301, 120.811 38.112 C 88.146 58.791, 58.791 88.146, 38.112 120.811 C 24.679 142.030, 11.372 174.858, 5.607 201 C -1.984 235.424, -1.984 276.576, 5.607 311 C 11.402 337.276, 24.924 370.472, 38.603 392 C 58.707 423.641, 87.990 452.920, 120 473.388 C 140.920 486.764, 175.034 500.664, 201.066 506.419 C 234.922 513.903, 277.078 513.903, 310.934 506.419 C 348.141 498.194, 385.893 480.156, 416 456.219 C 428.163 446.549, 446.549 428.163, 456.219 416 C 485.320 379.397, 505.682 331.129, 510.283 287.838 C 510.916 281.877, 511.787 277, 512.217 277 C 512.648 277, 512.964 266.988, 512.921 254.750 C 512.878 242.512, 512.566 233.175, 512.229 234 C 511.891 234.825, 511.041 230.441, 510.338 224.258 C 506.535 190.766, 491.572 148.527, 473.407 120 C 453.212 88.284, 423.334 58.420, 392 38.632 C 361.620 19.445, 323.728 6.055, 287.030 1.536 C 271.561 -0.369, 238.774 -0.323, 223.564 1.625 M 151.127 94.453 C 136.128 99.283, 132.372 118.218, 144.330 128.716 C 153.538 136.802, 166.715 134.943, 173.750 124.567 C 184.217 109.129, 168.894 88.732, 151.127 94.453 M 142 265 C 142 372, 142 372, 157.500 372 C 173 372, 173 372, 173 265 C 173 158, 173 158, 157.500 158 C 142 158, 142 158, 142 265 M 218 265.508 C 218 373.175, 218 373.175, 267.750 372.731 C 314.487 372.313, 318.105 372.152, 327.484 370.075 C 362.715 362.271, 388.574 342.707, 403.584 312.500 C 429.438 260.472, 408.935 196, 358.500 170.732 C 350.924 166.936, 336.679 162.147, 327.609 160.347 C 321.017 159.039, 310.008 158.654, 268.750 158.289 C 218 157.841, 218 157.841, 218 265.508 M 249 265.399 C 249 345, 249 345, 275.250 344.992 C 312.826 344.980, 325.676 343.119, 341.519 335.394 C 361.126 325.833, 375.682 306.737, 381.041 283.543 C 382.939 275.331, 383.185 272.076, 382.725 261.215 C 382.084 246.039, 380.507 239.594, 374.374 227.096 C 366.487 211.022, 352.514 198.931, 334.098 192.247 C 320.423 187.283, 316.334 186.818, 281.750 186.294 C 249 185.797, 249 185.797, 249 265.399 M 0.428 256 C 0.428 268.375, 0.571 273.438, 0.747 267.250 C 0.922 261.063, 0.922 250.938, 0.747 244.750 C 0.571 238.563, 0.428 243.625, 0.428 256" stroke="none" fill="#a4cc34" fill-rule="evenodd"/></svg>